<svg width="23" height="18" viewBox="0 0 23 18" fill="none" xmlns="http://www.w3.org/2000/svg">
<path d="M1.5 16.7273V15.8182C1.5 12.3036 4.3491 9.45453 7.86364 9.45453C11.3782 9.45453 14.2273 12.3036 14.2273 15.8182V16.7273" stroke="#578885" stroke-width="2" stroke-linecap="round"/>
<path d="M12.4092 11.2727C12.4092 8.76232 14.4443 6.72723 16.9546 6.72723C19.465 6.72723 21.5001 8.76232 21.5001 11.2727V11.7272" stroke="#578885" stroke-width="2" stroke-linecap="round"/>
<path d="M7.86341 9.45455C9.87169 9.45455 11.4998 7.82646 11.4998 5.81819C11.4998 3.80988 9.87169 2.18182 7.86341 2.18182C5.85511 2.18182 4.22705 3.80988 4.22705 5.81819C4.22705 7.82646 5.85511 9.45455 7.86341 9.45455Z" stroke="#578885" stroke-width="2" stroke-linecap="round" stroke-linejoin="round"/>
<path d="M16.9543 6.72725C18.4606 6.72725 19.6816 5.5062 19.6816 3.99998C19.6816 2.49375 18.4606 1.27271 16.9543 1.27271C15.4481 1.27271 14.2271 2.49375 14.2271 3.99998C14.2271 5.5062 15.4481 6.72725 16.9543 6.72725Z" stroke="#578885" stroke-width="2" stroke-linecap="round" stroke-linejoin="round"/>
</svg>
