<svg width="160" height="138" viewBox="0 0 160 138" fill="none" xmlns="http://www.w3.org/2000/svg">
<path d="M25.0392 90.8144L32.7313 74.5048C33.7188 72.4112 36.5714 72.4112 37.5589 74.5048L45.251 90.8144L62.453 93.4463C64.6601 93.7839 65.5395 96.623 63.9419 98.2525L51.4969 110.939L54.4339 128.862C54.8111 131.163 52.5027 132.918 50.5278 131.831L35.1451 123.365L19.7624 131.831C17.7875 132.918 15.4791 131.163 15.8563 128.862L18.7933 110.939L6.34832 98.2525C4.75046 96.623 5.63012 93.7839 7.83721 93.4463L25.0392 90.8144Z" stroke="#578885" stroke-width="6" stroke-linecap="round" stroke-linejoin="round"/>
<path d="M113.879 90.8144L121.572 74.5048C122.559 72.4112 125.412 72.4112 126.399 74.5048L134.092 90.8144L151.293 93.4463C153.5 93.7839 154.38 96.623 152.782 98.2525L140.337 110.939L143.274 128.862C143.652 131.163 141.343 132.918 139.368 131.831L123.985 123.365L108.603 131.831C106.627 132.918 104.319 131.163 104.697 128.862L107.634 110.939L95.1885 98.2525C93.5909 96.623 94.4704 93.7839 96.6774 93.4463L113.879 90.8144Z" stroke="#578885" stroke-width="6" stroke-linecap="round" stroke-linejoin="round"/>
<path d="M69.4587 24.1848L77.1515 7.87499C78.1384 5.78125 80.9916 5.78125 81.9785 7.87499L89.6713 24.1848L106.873 26.8164C109.08 27.154 109.959 29.9934 108.362 31.6223L95.9168 44.3088L98.8537 62.2317C99.2313 64.5334 96.9229 66.288 94.9477 65.2012L79.565 56.7346L64.1823 65.2012C62.2074 66.288 59.899 64.5334 60.2762 62.2317L63.2133 44.3088L50.7682 31.6223C49.1704 29.9934 50.05 27.154 52.2571 26.8164L69.4587 24.1848Z" stroke="#578885" stroke-width="6" stroke-linecap="round" stroke-linejoin="round"/>
</svg>
