<svg width="22" height="20" viewBox="0 0 22 20" fill="none" xmlns="http://www.w3.org/2000/svg">
<path d="M19.6686 1H15.5938L16.1042 6.10412C16.1042 6.10412 17.125 7.12494 18.6562 7.12494C19.7556 7.12494 20.5042 6.59865 20.839 6.30185C20.9725 6.18356 21.0213 6.00296 20.992 5.82707L20.2727 1.5118C20.2235 1.21647 19.968 1 19.6686 1Z" stroke="#578885"/>
<path d="M15.5937 1L16.1041 6.10412C16.1041 6.10412 15.0833 7.12494 13.5521 7.12494C12.0208 7.12494 11 6.10412 11 6.10412V1H15.5937Z" stroke="#578885"/>
<path d="M10.9987 1V6.10412C10.9987 6.10412 9.97783 7.12494 8.44659 7.12494C6.91535 7.12494 5.89453 6.10412 5.89453 6.10412L6.40494 1H10.9987Z" stroke="#578885"/>
<path d="M6.40643 1H2.33158C2.03217 1 1.77665 1.21647 1.72742 1.5118L1.0082 5.82708C0.978895 6.00296 1.02772 6.18356 1.16114 6.30185C1.49589 6.59865 2.24448 7.12494 3.34394 7.12494C4.87517 7.12494 5.89602 6.10412 5.89602 6.10412L6.40643 1Z" stroke="#578885"/>
<path d="M1.82031 7.12494V17.3332C1.82031 18.4608 2.73439 19.3748 3.86196 19.3748H18.1535C19.2811 19.3748 20.1951 18.4608 20.1951 17.3332V7.12494" stroke="#578885"/>
<path d="M13.8984 19.3748V13.2498C13.8984 12.1222 12.9843 11.2082 11.8567 11.2082H9.81507C8.68751 11.2082 7.77344 12.1222 7.77344 13.2498V19.3748" stroke="#578885" stroke-miterlimit="16"/>
</svg>
