<svg width="22" height="22" viewBox="0 0 22 22" fill="none" xmlns="http://www.w3.org/2000/svg">
<path d="M11 9.88885H13.7778H16.5556" stroke="#578885" stroke-width="1" stroke-linecap="round" stroke-linejoin="round"/>
<path d="M11 5.44446H13.7778H16.5556" stroke="#578885" stroke-width="1" stroke-linecap="round" stroke-linejoin="round"/>
<path d="M6.55566 14.3333V1.66667C6.55566 1.29848 6.85414 1 7.22233 1H20.3334C20.7017 1 21.0001 1.29848 21.0001 1.66667V16.5556C21.0001 19.0101 19.0102 21 16.5557 21" stroke="#578885" stroke-width="1" stroke-linecap="round" stroke-linejoin="round"/>
<path d="M3.22222 14.3333H6.55556H11.4444C11.8127 14.3333 12.1146 14.6298 12.1442 14.9968C12.2807 16.683 12.9791 21 16.5556 21H6.55556H4.33333C2.49239 21 1 19.5076 1 17.6666V16.5555C1 15.3282 1.99492 14.3333 3.22222 14.3333Z" stroke="#578885" stroke-width="1" stroke-linecap="round" stroke-linejoin="round"/>
</svg>
