<svg width="309" height="306" viewBox="0 0 309 306" fill="none" xmlns="http://www.w3.org/2000/svg">
<path d="M294.568 153.032C294.568 74.8523 231.19 11.4751 153.011 11.4751C74.8313 11.4751 11.4541 74.8523 11.4541 153.032C11.4541 231.211 74.8313 294.589 153.011 294.589" stroke="#ffffff" stroke-width="21.2336" stroke-linecap="round" stroke-linejoin="round"/>
<path d="M167.167 12.1731C167.167 12.1731 209.634 68.0969 209.634 153.031" stroke="#ffffff" stroke-width="21.2336" stroke-linecap="round" stroke-linejoin="round"/>
<path d="M138.856 293.89C138.856 293.89 96.3884 237.965 96.3884 153.031C96.3884 68.0969 138.856 12.1731 138.856 12.1731" stroke="#ffffff" stroke-width="21.2336" stroke-linecap="round" stroke-linejoin="round"/>
<path d="M20.3672 202.577H153.011" stroke="#ffffff" stroke-width="21.2336" stroke-linecap="round" stroke-linejoin="round"/>
<path d="M20.3672 103.487H285.656" stroke="#ffffff" stroke-width="21.2336" stroke-linecap="round" stroke-linejoin="round"/>
<path fill-rule="evenodd" clip-rule="evenodd" d="M292.854 236.797C299.845 241.096 299.414 251.562 292.215 252.379L255.883 256.496L239.587 289.229C236.358 295.715 226.376 292.54 224.726 284.501L206.956 197.924C205.562 191.13 211.669 186.853 217.576 190.488L292.854 236.797Z" stroke="#ffffff" stroke-width="21.2336"/>
</svg>
