<svg width="22" height="22" viewBox="0 0 22 22" fill="none" xmlns="http://www.w3.org/2000/svg">
<path d="M18.7778 20.1098H3.22222C1.99492 20.1098 1 19.115 1 17.8876V7.88763C1 6.66033 1.99492 5.66541 3.22222 5.66541H18.7778C20.0051 5.66541 21 6.66033 21 7.88763V17.8876C21 19.115 20.0051 20.1098 18.7778 20.1098Z" stroke="#578885" stroke-width="2"/>
<path d="M15.9999 13.4432C15.6931 13.4432 15.4443 13.1944 15.4443 12.8876C15.4443 12.5809 15.6931 12.3321 15.9999 12.3321C16.3067 12.3321 16.5554 12.5809 16.5554 12.8876C16.5554 13.1944 16.3067 13.4432 15.9999 13.4432Z" stroke="#578885" stroke-width="2" stroke-linecap="round" stroke-linejoin="round"/>
<path d="M17.6667 5.66549V4.11351C17.6667 2.65344 16.2827 1.59012 14.8719 1.96632L2.64963 5.22559C1.67686 5.485 1 6.366 1 7.37278V7.88771" stroke="#578885" stroke-width="2"/>
</svg>
