<svg width="136" height="19" viewBox="0 0 136 19" fill="none" xmlns="http://www.w3.org/2000/svg">
<path d="M7.944 1.296C9.896 1.296 11.496 1.72 12.744 2.568C14.008 3.416 14.64 4.672 14.64 6.336V6.624H10.032V6.528C10.032 6.064 9.864 5.688 9.528 5.4C9.208 5.096 8.712 4.944 8.04 4.944C7.384 4.944 6.888 5.04 6.552 5.232C6.216 5.408 6.048 5.648 6.048 5.952C6.048 6.32 6.24 6.616 6.624 6.84C7.024 7.048 7.6 7.232 8.352 7.392L10.488 7.872C13.464 8.544 14.952 10.088 14.952 12.504C14.952 14.472 14.304 15.92 13.008 16.848C11.712 17.776 9.92 18.24 7.632 18.24C6.368 18.24 5.2 18.048 4.128 17.664C3.072 17.28 2.216 16.696 1.56 15.912C0.92 15.112 0.6 14.128 0.6 12.96V12.672C0.6 12.544 0.608 12.448 0.624 12.384H5.28C5.264 12.432 5.256 12.528 5.256 12.672C5.256 13.168 5.424 13.576 5.76 13.896C6.112 14.216 6.688 14.376 7.488 14.376C8.368 14.376 8.968 14.288 9.288 14.112C9.608 13.92 9.768 13.664 9.768 13.344C9.768 12.96 9.544 12.672 9.096 12.48C8.648 12.272 7.944 12.064 6.984 11.856C5.768 11.6 4.752 11.32 3.936 11.016C3.136 10.696 2.44 10.184 1.848 9.48C1.256 8.76 0.96 7.776 0.96 6.528C0.96 5.408 1.264 4.456 1.872 3.672C2.496 2.888 3.336 2.296 4.392 1.896C5.448 1.496 6.632 1.296 7.944 1.296ZM21.1048 7.176C21.8728 6.056 22.8808 5.496 24.1288 5.496H24.8008C25.4568 5.496 26.0568 5.656 26.6008 5.976C27.1608 6.296 27.6008 6.736 27.9208 7.296C28.2408 7.84 28.4008 8.44 28.4008 9.096V18H23.6488V10.32C23.6488 9.92 23.5208 9.584 23.2648 9.312C23.0248 9.024 22.7288 8.88 22.3768 8.88C22.0248 8.88 21.7208 9.024 21.4648 9.312C21.2248 9.584 21.1048 9.92 21.1048 10.32V18H16.3528V0.719999H21.1048V7.176ZM34.968 4.152H30.24V0.719999H34.968V4.152ZM34.968 18H30.24V5.76H34.968V18ZM42.981 5.496C43.749 5.496 44.533 5.624 45.333 5.88C46.149 6.12 46.829 6.488 47.373 6.984C47.917 7.48 48.189 8.08 48.189 8.784C48.189 8.928 48.181 9.064 48.165 9.192C48.149 9.304 48.141 9.376 48.141 9.408H44.205C44.205 9.024 44.029 8.752 43.677 8.592C43.341 8.416 42.957 8.328 42.525 8.328C41.341 8.328 40.749 8.56 40.749 9.024C40.749 9.312 40.925 9.512 41.277 9.624C41.645 9.72 42.245 9.816 43.077 9.912C44.165 10.04 45.061 10.2 45.765 10.392C46.485 10.584 47.109 10.96 47.637 11.52C48.181 12.064 48.453 12.864 48.453 13.92C48.453 15.424 47.901 16.52 46.797 17.208C45.709 17.896 44.365 18.24 42.765 18.24H41.517C40.621 18.24 39.765 18.104 38.949 17.832C38.149 17.544 37.493 17.112 36.981 16.536C36.469 15.96 36.213 15.256 36.213 14.424V14.208C36.213 14.112 36.221 14.04 36.237 13.992H40.125V14.088C40.125 14.552 40.333 14.88 40.749 15.072C41.165 15.248 41.645 15.336 42.189 15.336C42.669 15.336 43.125 15.288 43.557 15.192C44.005 15.096 44.229 14.896 44.229 14.592C44.229 14.288 44.045 14.08 43.677 13.968C43.309 13.84 42.701 13.712 41.853 13.584C40.829 13.456 39.957 13.288 39.237 13.08C38.517 12.872 37.893 12.496 37.365 11.952C36.853 11.392 36.597 10.616 36.597 9.624C36.597 8.696 36.877 7.928 37.437 7.32C38.013 6.696 38.733 6.24 39.597 5.952C40.461 5.648 41.341 5.496 42.237 5.496H42.981ZM54.5633 7.176C55.3313 6.056 56.3393 5.496 57.5873 5.496H58.2593C58.9153 5.496 59.5153 5.656 60.0593 5.976C60.6193 6.296 61.0593 6.736 61.3793 7.296C61.6993 7.84 61.8593 8.44 61.8593 9.096V18H57.1073V10.32C57.1073 9.92 56.9793 9.584 56.7233 9.312C56.4833 9.024 56.1873 8.88 55.8353 8.88C55.4833 8.88 55.1793 9.024 54.9233 9.312C54.6833 9.584 54.5633 9.92 54.5633 10.32V18H49.8113V0.719999H54.5633V7.176ZM69.9864 5.496C71.8424 5.496 73.2584 5.856 74.2344 6.576C75.2264 7.296 75.7224 8.232 75.7224 9.384V14.448C75.7224 14.752 75.7944 14.976 75.9384 15.12C76.0824 15.264 76.2584 15.336 76.4664 15.336C76.7704 15.336 77.0504 15.264 77.3064 15.12V17.688C76.7944 18.056 75.9864 18.24 74.8824 18.24C73.8584 18.24 73.0504 18.072 72.4584 17.736C71.8664 17.384 71.4984 16.904 71.3544 16.296C70.8424 16.888 70.2744 17.36 69.6504 17.712C69.0424 18.064 68.2904 18.24 67.3944 18.24C66.1144 18.24 65.0744 17.992 64.2744 17.496C63.4744 17 63.0744 16.024 63.0744 14.568C63.0744 13.464 63.3864 12.616 64.0104 12.024C64.6344 11.416 65.5224 11 66.6744 10.776C67.8424 10.536 69.3224 10.416 71.1144 10.416V9.72C71.1144 9.272 70.9624 8.92 70.6584 8.664C70.3704 8.408 70.0024 8.28 69.5544 8.28C69.1864 8.28 68.8344 8.392 68.4984 8.616C68.1784 8.824 68.0184 9.088 68.0184 9.408V9.504H63.4584C63.4424 9.456 63.4344 9.344 63.4344 9.168C63.4344 8.48 63.6664 7.864 64.1304 7.32C64.6104 6.76 65.2824 6.32 66.1464 6C67.0264 5.664 68.0424 5.496 69.1944 5.496H69.9864ZM71.1144 12.6C70.0584 12.6 69.2824 12.744 68.7864 13.032C68.2904 13.304 68.0424 13.688 68.0424 14.184C68.0424 14.952 68.5224 15.336 69.4824 15.336C69.9304 15.336 70.3144 15.184 70.6344 14.88C70.9544 14.56 71.1144 14.152 71.1144 13.656V12.6ZM86.643 5.496C87.299 5.496 87.899 5.656 88.443 5.976C89.003 6.296 89.443 6.736 89.763 7.296C90.083 7.84 90.243 8.44 90.243 9.096V18H85.491V10.32C85.491 9.92 85.363 9.584 85.107 9.312C84.867 9.024 84.571 8.88 84.219 8.88C83.867 8.88 83.563 9.024 83.307 9.312C83.067 9.584 82.947 9.92 82.947 10.32V18H78.195V5.736H81.771L82.251 7.512C83.131 6.168 84.371 5.496 85.971 5.496H86.643ZM99.7382 1.296C101.066 1.296 102.25 1.56 103.29 2.088C104.346 2.6 105.178 3.384 105.786 4.44C106.394 5.48 106.698 6.76 106.698 8.28H101.97V7.44C101.97 6.704 101.738 6.12 101.274 5.688C100.826 5.256 100.258 5.04 99.5702 5.04H99.4502C98.7782 5.04 98.2102 5.272 97.7462 5.736C97.2822 6.2 97.0502 6.768 97.0502 7.44V12.072C97.0502 12.744 97.2822 13.312 97.7462 13.776C98.2102 14.24 98.7782 14.472 99.4502 14.472H99.7862C100.474 14.472 101.042 14.264 101.49 13.848C101.954 13.416 102.186 12.824 102.186 12.072V11.28H106.698C106.698 12.688 106.402 13.92 105.81 14.976C105.234 16.032 104.434 16.84 103.41 17.4C102.386 17.96 101.226 18.24 99.9302 18.24H99.2582C97.8342 18.24 96.5382 17.952 95.3702 17.376C94.2182 16.8 93.3062 15.968 92.6342 14.88C91.9622 13.792 91.6262 12.512 91.6262 11.04V8.496C91.6262 7.104 91.9622 5.864 92.6342 4.776C93.3222 3.672 94.2342 2.816 95.3702 2.208C96.5062 1.6 97.7382 1.296 99.0662 1.296H99.7382ZM112.737 7.176C113.505 6.056 114.513 5.496 115.761 5.496H116.433C117.089 5.496 117.689 5.656 118.233 5.976C118.793 6.296 119.233 6.736 119.553 7.296C119.873 7.84 120.033 8.44 120.033 9.096V18H115.281V10.32C115.281 9.92 115.153 9.584 114.897 9.312C114.657 9.024 114.361 8.88 114.009 8.88C113.657 8.88 113.353 9.024 113.097 9.312C112.857 9.584 112.737 9.92 112.737 10.32V18H107.985V0.719999H112.737V7.176ZM133.824 14.448C133.824 14.752 133.896 14.976 134.04 15.12C134.184 15.264 134.36 15.336 134.568 15.336C134.872 15.336 135.152 15.264 135.408 15.12V17.688C134.896 18.056 134.088 18.24 132.984 18.24C131.96 18.24 131.176 18.08 130.632 17.76C130.088 17.424 129.696 16.936 129.456 16.296C129.184 16.712 128.736 17.144 128.112 17.592C127.488 18.024 126.8 18.24 126.048 18.24H125.376C124.72 18.24 124.112 18.08 123.552 17.76C123.008 17.44 122.576 17.008 122.256 16.464C121.936 15.904 121.776 15.296 121.776 14.64V5.736H126.528V13.416C126.528 13.816 126.648 14.16 126.888 14.448C127.144 14.72 127.448 14.856 127.8 14.856C128.152 14.856 128.448 14.72 128.688 14.448C128.944 14.16 129.072 13.816 129.072 13.416V5.736H133.824V14.448Z" fill="white"/>
</svg>
